<?xml version="1.0" encoding="UTF-8"?>
<svg version="1.1" xmlns="http://www.w3.org/2000/svg" width="283" height="283">
<path d="M0 0 C1.2694043 0.00491455 2.53880859 0.0098291 3.84667969 0.01489258 C13.7725849 0.1380506 23.17253819 0.9513136 32.8125 3.3125 C33.85374023 3.56193359 33.85374023 3.56193359 34.91601562 3.81640625 C58.2968639 9.60268401 79.15543543 21.00073559 96.8125 37.3125 C97.32264648 37.77881836 97.83279297 38.24513672 98.35839844 38.72558594 C122.87269071 61.37449135 140.4477735 95.20994192 141.97363281 128.86669922 C142.01961832 132.97384648 142.05916014 137.08009064 142.0625 141.1875 C142.06317474 141.92926483 142.06384949 142.67102966 142.06454468 143.43527222 C142.04874328 154.35167509 141.65195518 164.71034073 138.8125 175.3125 C138.64621094 175.9528418 138.47992188 176.59318359 138.30859375 177.25292969 C132.2175772 200.22959767 120.91826431 220.87842523 104.8125 238.3125 C104.11302246 239.07771973 104.11302246 239.07771973 103.39941406 239.85839844 C80.29432268 264.86644862 46.02283515 282.03876138 11.75561523 283.43725586 C-30.83521752 284.40887531 -67.53376499 272.78561415 -99.09765625 243.375 C-102.34175777 240.17334467 -105.31618776 236.85113214 -108.1875 233.3125 C-108.94675781 232.40242187 -109.70601562 231.49234375 -110.48828125 230.5546875 C-134.16910407 201.51709925 -144.37826571 163.88650901 -140.6875 126.81640625 C-137.27724455 97.07556584 -125.73290221 70.98948599 -106.1875 48.3125 C-105.58035156 47.58289062 -104.97320312 46.85328125 -104.34765625 46.1015625 C-100.32950745 41.34538638 -96.00832745 37.24655317 -91.1875 33.3125 C-90.25164062 32.5390625 -89.31578125 31.765625 -88.3515625 30.96875 C-73.27584774 18.7816953 -56.19259735 10.48653722 -37.625 5.0625 C-36.78686768 4.81604736 -35.94873535 4.56959473 -35.08520508 4.31567383 C-23.47071518 1.06891382 -12.03595835 -0.05558776 0 0 Z " fill="#8CD7D0" transform="translate(141.1875,-0.3125)"/>
<path d="M0 0 C52.8 0 105.6 0 160 0 C160 22.44 160 44.88 160 68 C107.2 68 54.4 68 0 68 C0 45.56 0 23.12 0 0 Z " fill="#242528" transform="translate(62,175)"/>
<path d="M0 0 C0.80308594 -0.020625 1.60617188 -0.04125 2.43359375 -0.0625 C7.13888392 -0.09350685 10.38673784 0.07730518 14.125 3.25 C17.85118985 7.89262148 17.55690219 12.32688699 17.52905273 18.00976562 C17.53591599 18.98757492 17.54277924 19.96538422 17.54985046 20.9728241 C17.56813245 24.20078097 17.56427924 27.42825253 17.55859375 30.65625 C17.56315451 32.90157225 17.56845976 35.1468931 17.57447815 37.39221191 C17.58341175 42.09633051 17.58098277 46.80027935 17.57104492 51.50439453 C17.55954861 57.53385356 17.57977609 63.56272752 17.60896206 69.59210968 C17.62730267 74.22808557 17.62703594 78.86392065 17.62132454 83.49992371 C17.6211711 85.72308677 17.62723422 87.94625923 17.63961601 90.16938782 C17.65448527 93.27671096 17.64387863 96.38294542 17.62670898 99.49023438 C17.63637695 100.40882736 17.64604492 101.32742035 17.65600586 102.27384949 C17.60740846 106.47171451 17.49863097 108.66225192 15.19935608 112.2791748 C10.51407071 116.7306181 6.41161776 116.58749646 0.1875 116.5625 C-0.61107422 116.57861328 -1.40964844 116.59472656 -2.23242188 116.61132812 C-7.92376125 116.6160434 -11.2244222 115.72599096 -15.48132324 111.7494812 C-17.67093364 107.8225376 -17.30886303 103.95177629 -17.29492188 99.52783203 C-17.30339142 98.54202148 -17.31186096 97.55621094 -17.32058716 96.54052734 C-17.34399907 93.27949139 -17.34497823 90.01892617 -17.34375 86.7578125 C-17.35084948 84.49103608 -17.35854817 82.22426146 -17.36682129 79.95748901 C-17.38027609 75.2045187 -17.38183053 70.45171451 -17.37597656 65.69873047 C-17.37008237 59.60983136 -17.40065659 53.52173011 -17.44109344 47.43298531 C-17.46695292 42.75063792 -17.46984936 38.06848302 -17.46620178 33.38607407 C-17.46789494 31.1413968 -17.47755617 28.89671083 -17.49534607 26.65210342 C-17.51749822 23.51117968 -17.5078516 20.37187557 -17.49023438 17.23095703 C-17.50349762 16.30503754 -17.51676086 15.37911804 -17.53042603 14.42514038 C-17.4741514 10.10387631 -17.25883225 7.14894183 -14.52404785 3.68869019 C-10.03194867 -0.44669686 -5.77142919 0.03670225 0 0 Z " fill="#F15EA6" transform="translate(141.875,24.75)"/>
<path d="M0 0 C0.78181641 -0.03287109 1.56363281 -0.06574219 2.36914062 -0.09960938 C7.55412374 -0.14725751 10.65318865 0.82468115 14.78393555 3.96850586 C18.32152103 7.67100227 18.45359884 11.21501401 18.50976562 16.20629883 C18.51969543 16.87838882 18.52962524 17.55047882 18.53985596 18.24293518 C18.56899774 20.46017599 18.58268576 22.67713062 18.59375 24.89453125 C18.6052618 26.44146222 18.61677715 27.98839317 18.6282959 29.5353241 C18.64928731 32.77755049 18.66099104 36.01967814 18.66796875 39.26196289 C18.67892987 43.40496168 18.72697357 47.54664296 18.78391266 51.68922901 C18.82126972 54.8849817 18.83158198 58.08042037 18.8346405 61.27637291 C18.84067197 62.80296719 18.85665666 64.32955735 18.88301086 65.85593605 C19.09808003 79.27034475 19.09808003 79.27034475 15.33398438 83.8659668 C11.22544245 87.80628553 6.78885854 87.6200917 1.375 87.625 C0.67568359 87.63724609 -0.02363281 87.64949219 -0.74414062 87.66210938 C-5.16116565 87.67450514 -8.83736042 87.41656378 -12.8125 85.4375 C-16.36633469 81.03762407 -17.31529928 78.05669841 -17.33007812 72.44165039 C-17.34059204 71.43307732 -17.34059204 71.43307732 -17.35131836 70.40412903 C-17.36881978 68.19737557 -17.35730391 65.99192112 -17.34375 63.78515625 C-17.34644753 62.2410813 -17.35033212 60.69700801 -17.35534668 59.15293884 C-17.36123131 55.92251352 -17.35271392 52.69253179 -17.33398438 49.4621582 C-17.31121399 45.33512766 -17.3243114 41.20913886 -17.34827423 37.08214664 C-17.362777 33.89493563 -17.35810556 30.7079687 -17.34776306 27.52075005 C-17.34510711 25.9998099 -17.34832549 24.47884712 -17.35768127 22.95793343 C-17.42839597 8.23033801 -17.42839597 8.23033801 -12.8125 2.4375 C-9.28109065 -0.49316386 -4.38980339 0.03209442 0 0 Z " fill="#F060A6" transform="translate(187.8125,53.5625)"/>
<path d="M0 0 C0.83853516 -0.04576172 1.67707031 -0.09152344 2.54101562 -0.13867188 C8.36573004 -0.24325301 11.32323772 0.89140713 15.52856445 4.94506836 C19.89757771 10.0235582 18.16488322 19.72909404 18.2175293 26.14819336 C18.23908073 28.12395741 18.2731497 30.09962672 18.32006836 32.07495117 C18.38723808 34.92930574 18.41455778 37.78168415 18.43359375 40.63671875 C18.46142441 41.51301437 18.48925507 42.38931 18.51792908 43.29216003 C18.49894228 48.99870794 17.3150089 51.98248656 13.39613342 56.15315247 C9.55277076 59.27017013 4.68990895 58.73002358 0 58.8125 C-1.19206055 58.86857422 -1.19206055 58.86857422 -2.40820312 58.92578125 C-6.58605591 58.98798253 -9.32187729 58.78524526 -12.63671875 56.1015625 C-15.76441819 52.83496064 -17.42428483 50.84910621 -17.50976562 46.35253906 C-17.52898071 45.53448792 -17.5481958 44.71643677 -17.56799316 43.87359619 C-17.57649292 42.9923407 -17.58499268 42.11108521 -17.59375 41.203125 C-17.61085022 39.83604401 -17.61085022 39.83604401 -17.6282959 38.44134521 C-17.64718984 36.51139972 -17.66026151 34.58138978 -17.66796875 32.65136719 C-17.68734033 29.71172993 -17.74935982 26.7749156 -17.8125 23.8359375 C-17.82556524 21.9583499 -17.83606416 20.08074233 -17.84375 18.203125 C-17.8684436 17.32996643 -17.89313721 16.45680786 -17.9185791 15.55718994 C-17.87714677 9.82326122 -16.65437665 6.872851 -12.67224121 2.7230835 C-8.96274734 -0.48883254 -4.67464333 0.10185173 0 0 Z " fill="#EF61A7" transform="translate(95.1875,82.5625)"/>
<path d="M0 0 C5.67711389 1.81460261 10.08067244 6.54382517 13.00390625 11.6328125 C13.77734375 13.210625 13.77734375 13.210625 14.56640625 14.8203125 C15.06140625 15.8103125 15.06140625 15.8103125 15.56640625 16.8203125 C16.45908466 23.51540054 16.45908466 23.51540054 14.390625 26.5390625 C9.64064392 30.98295888 2.17684166 34.8203125 -4.43359375 34.8203125 C-4.43359375 35.4803125 -4.43359375 36.1403125 -4.43359375 36.8203125 C2.18685564 39.08095376 8.78157773 40.9340805 15.6484375 42.2578125 C17.56640625 42.8203125 17.56640625 42.8203125 19.56640625 44.8203125 C19.81640625 48.3203125 19.81640625 48.3203125 19.56640625 51.8203125 C17.15792332 54.22879543 16.49987835 54.14177735 13.19140625 54.1953125 C3.03917714 53.9609176 -5.46164789 49.85966542 -13.43359375 43.8203125 C-13.5625 44.43261719 -13.69140625 45.04492188 -13.82421875 45.67578125 C-14.67594509 48.67320279 -15.9581211 49.96370801 -18.43359375 51.8203125 C-21.05859375 51.8828125 -21.05859375 51.8828125 -23.43359375 50.8203125 C-25.80600551 46.97926488 -25.68858943 43.24023768 -25.43359375 38.8203125 C-24.93859375 38.3253125 -24.93859375 38.3253125 -24.43359375 37.8203125 C-24.10698325 35.29947328 -23.82343982 32.78512024 -23.55859375 30.2578125 C-22.19918868 18.75887488 -22.19918868 18.75887488 -19.43359375 13.8203125 C-18.02400391 13.38332031 -18.02400391 13.38332031 -16.5859375 12.9375 C-12.76986288 11.58508694 -11.60369596 10.05789797 -9.24609375 6.8203125 C-4.00230771 -0.2955155 -4.00230771 -0.2955155 0 0 Z " fill="#F5F5F6" transform="translate(189.43359375,183.1796875)"/>
<path d="M0 0 C1.4375 1.8125 1.4375 1.8125 2.0625 4.25 C1.4375 6.8125 1.4375 6.8125 -1 9 C-5.19189268 11.13271733 -8.9613895 12.01478425 -13.5625 12.8125 C-14.56023437 12.998125 -15.55796875 13.18375 -16.5859375 13.375 C-19.2427429 13.86674804 -21.90135021 14.34493349 -24.5625 14.8125 C-24.5625 15.8025 -24.5625 16.7925 -24.5625 17.8125 C-23.20705078 17.76029297 -23.20705078 17.76029297 -21.82421875 17.70703125 C-20.64472656 17.67996094 -19.46523437 17.65289062 -18.25 17.625 C-17.07824219 17.59019531 -15.90648437 17.55539063 -14.69921875 17.51953125 C-11.5625 17.8125 -11.5625 17.8125 -9.83203125 19.26171875 C-9.20361328 20.02935547 -9.20361328 20.02935547 -8.5625 20.8125 C-7.5725 21.1425 -6.5825 21.4725 -5.5625 21.8125 C-5.5625 23.1325 -5.5625 24.4525 -5.5625 25.8125 C-13.14782725 30.45273405 -19.72292758 31.66009358 -28.5625 31.8125 C-29.5525 34.2875 -29.5525 34.2875 -30.5625 36.8125 C-29.50337402 36.73563965 -29.50337402 36.73563965 -28.42285156 36.65722656 C-25.22046837 36.43713512 -22.01697923 36.24948906 -18.8125 36.0625 C-17.70132813 35.98128906 -16.59015625 35.90007812 -15.4453125 35.81640625 C-14.37539062 35.75839844 -13.30546875 35.70039063 -12.203125 35.640625 C-11.21860352 35.5777832 -10.23408203 35.51494141 -9.21972656 35.45019531 C-5.77514282 35.91985374 -4.65843608 37.10221656 -2.5625 39.8125 C-2.375 42.3125 -2.375 42.3125 -3.5625 44.8125 C-11.46877795 51.40106495 -24.65795595 51.59857492 -34.5625 50.8125 C-38.62912662 49.25978802 -40.13769602 48.44970598 -42.5625 44.8125 C-43.1875 42.5625 -43.1875 42.5625 -43.5625 39.8125 C-43.706875 38.801875 -43.85125 37.79125 -44 36.75 C-43.43571942 31.67147474 -41.318046 28.16163948 -38.77734375 23.77734375 C-37.32438378 20.23137391 -37.66945931 18.48388951 -38.5625 14.8125 C-38.8655473 11.97577855 -38.7998354 9.70799191 -38.5625 6.8125 C-35.34530282 3.43936724 -31.14072632 2.7010564 -26.75 1.6875 C-26.06357422 1.51863281 -25.37714844 1.34976563 -24.66992188 1.17578125 C-6.75337687 -3.12961367 -6.75337687 -3.12961367 0 0 Z " fill="#F4F4F4" transform="translate(163.5625,185.1875)"/>
<path d="M0 0 C4.59545193 2.43403174 6.89487067 5.31863143 8.90625 9.9765625 C10.10043264 14.75329308 10.67905059 19.10863929 8.578125 23.7421875 C3.57455983 30.42762332 -6.03949865 33.73004473 -14.0625 35.03515625 C-16.47899339 35.24362135 -18.85695273 35.26497566 -21.28125 35.2265625 C-21.24644531 35.79503906 -21.21164063 36.36351562 -21.17578125 36.94921875 C-20.98166487 42.48615741 -21.15964528 46.54415542 -24.28125 51.2265625 C-27.08147625 52.14892499 -29.28116953 52.17738085 -32.28125 52.2265625 C-35.49915877 47.96077062 -35.50019986 44.64208169 -34.90625 39.5390625 C-34.1677975 34.75924399 -34.1677975 34.75924399 -35.28125 30.2265625 C-35.93307307 24.6208841 -34.33238027 21.75967033 -31.28125 17.2265625 C-30.29125 16.5665625 -29.30125 15.9065625 -28.28125 15.2265625 C-27.3776556 13.00944767 -27.3776556 13.00944767 -26.65625 10.4765625 C-24.73876349 5.52126029 -22.5758015 2.90021065 -17.98046875 0.2265625 C-12.20455824 -1.91328278 -5.8436986 -1.98125398 0 0 Z " fill="#F5F5F5" transform="translate(112.28125,183.7734375)"/>
<path d="M0 0 C3.96 0 7.92 0 12 0 C12 30.69 12 61.38 12 93 C8.04 93 4.08 93 0 93 C0 62.31 0 31.62 0 0 Z " fill="#91D2CE" transform="translate(136,37)"/>
<path d="M0 0 C3.96 0 7.92 0 12 0 C12 21.12 12 42.24 12 64 C8.04 64 4.08 64 0 64 C0 42.88 0 21.76 0 0 Z " fill="#92D0CE" transform="translate(182,66)"/>
<path d="M0 0 C3.63 0 7.26 0 11 0 C11 11.55 11 23.1 11 35 C7.37 35 3.74 35 0 35 C0 23.45 0 11.9 0 0 Z " fill="#8ED5CF" transform="translate(90,95)"/>
<path d="M0 0 C1.28841797 -0.00257813 2.57683594 -0.00515625 3.90429688 -0.0078125 C4.5769458 -0.00362305 5.24959473 0.00056641 5.94262695 0.00488281 C7.99265274 0.01556635 10.04179872 0.00499537 12.09179688 -0.0078125 C14.02635742 -0.00394531 14.02635742 -0.00394531 16 0 C17.7797522 0.00338379 17.7797522 0.00338379 19.59545898 0.00683594 C22.56640625 0.265625 22.56640625 0.265625 25.56640625 2.265625 C25.94140625 5.765625 25.94140625 5.765625 25.56640625 9.265625 C22.00945514 11.63692574 20.46918069 11.51131027 16.25390625 11.49609375 C15.01382813 11.49416016 13.77375 11.49222656 12.49609375 11.49023438 C11.19929688 11.47798828 9.9025 11.46574219 8.56640625 11.453125 C7.26960937 11.45248047 5.9728125 11.45183594 4.63671875 11.45117188 C-5.01236121 11.40603585 -5.01236121 11.40603585 -8.43359375 10.265625 C-8.62890625 4.2109375 -8.62890625 4.2109375 -8.43359375 2.265625 C-5.64313082 -0.52483793 -3.90204369 0.0074259 0 0 Z " fill="#F060A6" transform="translate(179.43359375,152.734375)"/>
<path d="M0 0 C1.85334961 -0.00580078 1.85334961 -0.00580078 3.74414062 -0.01171875 C5.03642578 -0.00011719 6.32871094 0.01148438 7.66015625 0.0234375 C9.5927832 0.00603516 9.5927832 0.00603516 11.56445312 -0.01171875 C13.41973633 -0.00591797 13.41973633 -0.00591797 15.3125 0 C16.44550537 0.00338379 17.57851074 0.00676758 18.74584961 0.01025391 C22.01375436 0.43639748 23.41264086 1.08183494 25.72265625 3.3984375 C26.2133747 6.20254293 26.2292599 7.65997206 24.60351562 10.02978516 C21.82701517 12.05017217 19.59487761 11.78711628 16.19140625 11.796875 C14.90621094 11.80074219 13.62101562 11.80460938 12.296875 11.80859375 C11.62833496 11.80230957 10.95979492 11.79602539 10.27099609 11.78955078 C8.22946295 11.77349104 6.18990917 11.78940421 4.1484375 11.80859375 C2.86324219 11.80472656 1.57804687 11.80085937 0.25390625 11.796875 C-0.92623047 11.79349121 -2.10636719 11.79010742 -3.32226562 11.78662109 C-6.27734375 11.3984375 -6.27734375 11.3984375 -8.16210938 10.02978516 C-9.76484764 7.68532433 -9.69366085 6.17388486 -9.27734375 3.3984375 C-6.77533294 -0.2101177 -4.183728 0.01250741 0 0 Z " fill="#F05FA6" transform="translate(87.27734375,152.6015625)"/>
<path d="M0 0 C1.00897339 0.00326294 1.00897339 0.00326294 2.03833008 0.0065918 C4.08859551 0.00974867 6.13741342 -0.01369197 8.1875 -0.0390625 C9.47720703 -0.03970703 10.76691406 -0.04035156 12.09570312 -0.04101562 C13.28220459 -0.04399658 14.46870605 -0.04697754 15.69116211 -0.05004883 C18.66210938 0.32226562 18.66210938 0.32226562 20.54907227 1.6887207 C22.14783083 4.03513298 22.07839096 5.54705508 21.66210938 8.32226562 C20.54907227 9.95581055 20.54907227 9.95581055 18.66210938 11.32226562 C15.69116211 11.69458008 15.69116211 11.69458008 12.09570312 11.68554688 C10.16114258 11.68458008 10.16114258 11.68458008 8.1875 11.68359375 C7.5169458 11.67529541 6.8463916 11.66699707 6.15551758 11.65844727 C4.1032805 11.63480791 2.05233905 11.63789415 0 11.64453125 C-10.07104345 11.5891128 -10.07104345 11.5891128 -12.33789062 9.32226562 C-12.58789062 5.82226562 -12.58789062 5.82226562 -12.33789062 2.32226562 C-8.97932096 -1.03630404 -4.56324636 0.02511041 0 0 Z " fill="#F15EA6" transform="translate(137.337890625,152.677734375)"/>
<path d="M0 0 C0.680625 0.33 1.36125 0.66 2.0625 1 C-0.42828926 4.01427717 -2.75655272 4.74540741 -6.5 5.6875 C-7.95599609 6.06455078 -7.95599609 6.06455078 -9.44140625 6.44921875 C-11.9375 7 -11.9375 7 -13.9375 7 C-14.1875 4.6875 -14.1875 4.6875 -13.9375 2 C-10.18685427 -2.35074905 -5.06317524 -1.72363412 0 0 Z " fill="#3D3E41" transform="translate(107.9375,198)"/>
<path d="M0 0 C1.8125 0.9375 1.8125 0.9375 3.8125 2.9375 C3.8125 3.9275 3.8125 4.9175 3.8125 5.9375 C2.1892313 6.6083712 0.56382422 7.27407029 -1.0625 7.9375 C-2.41988281 8.494375 -2.41988281 8.494375 -3.8046875 9.0625 C-6.1875 9.9375 -6.1875 9.9375 -8.1875 9.9375 C-7.88154824 6.36806285 -7.16325359 4.90735581 -4.875 2.0625 C-2.1875 -0.0625 -2.1875 -0.0625 0 0 Z " fill="#5F6062" transform="translate(189.1875,198.0625)"/>
<path d="M0 0 C0.99 0.33 1.98 0.66 3 1 C2.67 2.32 2.34 3.64 2 5 C-0.64 5.66 -3.28 6.32 -6 7 C-4.02 4.69 -2.04 2.38 0 0 Z " fill="#232427" transform="translate(188,200)"/>
<path d="M0 0 C0.66 0 1.32 0 2 0 C0.4169423 4.2742558 -2.50568404 6.26531794 -6 9 C-4.4722133 5.56247993 -2.49818944 2.81046312 0 0 Z " fill="#CACBCB" transform="translate(184,185)"/>
<path d="M0 0 C-1.65 0.66 -3.3 1.32 -5 2 C-5 2.66 -5 3.32 -5 4 C-6.32 3.67 -7.64 3.34 -9 3 C-9 2.34 -9 1.68 -9 1 C-5.57367167 -0.61798838 -3.61944899 -1.34053666 0 0 Z " fill="#5A5B5D" transform="translate(194,217)"/>
</svg>
